<svg xmlns="http://www.w3.org/2000/svg" width="463.87402" height="73" viewBox="0 0 463.87402 73"><defs><style>.cls-1{fill:#0071bc;}.cls-2{fill:#fff;}</style></defs><title>bofeedo logo_1</title><g id="Layer_2" data-name="Layer 2"><g id="Layer_1-2" data-name="Layer 1"><path class="cls-1" d="M0,.46777H51.13672V25.82715l-8.52295,8.45312,8.52295,8.45313V68.09326H0ZM17.04541,17.374v8.45313h17.0459V17.374ZM34.09131,42.7334H17.04541V51.187h17.0459Z"/><path class="cls-1" d="M109.0918.46777V51.187L92.04639,68.09326H57.95508V17.374L75.00049.46777ZM92.04639,51.187V17.374H75.00049V51.187Z"/><path class="cls-1" d="M150.00146.46777V17.374H132.95557v8.45313h17.04589V42.7334H132.95557V68.09326H115.91016V.46777Z"/><path class="cls-1" d="M207.95605.46777V42.7334h-34.0913V51.187h34.0913V68.09326h-34.0913L156.81934,51.187V.46777ZM190.91064,17.374H173.86475v8.45313h17.04589Z"/><path class="cls-1" d="M265.91113.46777V42.7334H231.82031V51.187h34.09082V68.09326H231.82031L214.77441,51.187V.46777ZM248.86523,17.374H231.82031v8.45313h17.04492Z"/><path class="cls-1" d="M272.72949.46777h34.09082L323.86621,17.374V68.09326H272.72949ZM289.77539,17.374V51.187h17.04492V17.374Z"/><path class="cls-1" d="M381.82129.46777V51.187l-17.0459,16.90625H330.68457V17.374L347.73047.46777ZM364.77539,51.187V17.374H347.73047V51.187Z"/><rect class="cls-1" x="425.68652" y="8" width="5" height="17"/><circle class="cls-1" cx="428.18652" cy="5.5" r="5.5"/><rect class="cls-1" x="394.87402" y="17" width="69" height="51" rx="5.48625"/><circle class="cls-2" cx="413.37402" cy="42" r="8"/><circle class="cls-1" cx="410.68652" cy="42" r="4"/><circle class="cls-2" cx="445.37402" cy="43" r="8"/><circle class="cls-1" cx="446.68652" cy="44" r="4"/><rect class="cls-2" x="414.68652" y="62" width="29" height="11"/></g></g></svg>