<svg xmlns="http://www.w3.org/2000/svg" width="69" height="68" viewBox="0 0 69 68"><defs><style>.cls-1{fill:#0071bc;}</style></defs><title>bot</title><g id="Layer_2" data-name="Layer 2"><g id="Layer_1-2" data-name="Layer 1"><rect class="cls-1" x="30.8125" y="8" width="5" height="17"/><circle class="cls-1" cx="33.3125" cy="5.5" r="5.5"/><circle class="cls-1" cx="15.8125" cy="42" r="4"/><path class="cls-1" d="M63.51373,17H5.48627A5.48624,5.48624,0,0,0,0,22.48621V62.51373A5.48629,5.48629,0,0,0,5.48627,68H19.8125V62h29v6H63.51373A5.48629,5.48629,0,0,0,69,62.51373V22.48621A5.48624,5.48624,0,0,0,63.51373,17ZM18.5,50a8,8,0,1,1,8-8A8,8,0,0,1,18.5,50Zm32,1a8,8,0,1,1,8-8A8,8,0,0,1,50.5,51Z"/><circle class="cls-1" cx="51.8125" cy="44" r="4"/></g></g></svg>